<?xml version="1.0" encoding="UTF-8"?>
<!-- Created with Inkscape (http://www.inkscape.org/) -->
<svg width="400" height="400" version="1.1" viewBox="0 0 400 400" xml:space="preserve" xmlns="http://www.w3.org/2000/svg" xmlns:cc="http://creativecommons.org/ns#" xmlns:dc="http://purl.org/dc/elements/1.1/" xmlns:rdf="http://www.w3.org/1999/02/22-rdf-syntax-ns#"><metadata><rdf:RDF><cc:Work rdf:about=""><dc:format>image/svg+xml</dc:format><dc:type rdf:resource="http://purl.org/dc/dcmitype/StillImage"/><dc:title/></cc:Work></rdf:RDF></metadata><defs><clipPath id="clipPath847"><path d="m0 500h500v-500h-500z"/></clipPath></defs><g transform="matrix(1.3333 0 0 -1.3333 -65.537 530.51)"><flowRoot fill="#000000" font-family="sans-serif" font-size="40px" letter-spacing="0px" word-spacing="0px" style="line-height:1.25" xml:space="preserve"><flowRegion><rect x="570.62" y="175.14" width="519.77" height="364.41"/></flowRegion><flowPara/></flowRoot><g transform="matrix(1.0501 0 0 -1.0501 -149.68 567.75)" aria-label="Team feedback"><g transform="matrix(.95228 0 0 -.95228 142.54 540.66)"><g clip-path="url(#clipPath847)"><g transform="translate(-50.847 -2.1186)"><g transform="translate(196.6 284.84)"><path d="m0 0-30.169-30.17-45.014 45.014c-8.331 8.331-8.331 21.838 0 30.169s21.839 8.331 30.17 0z" fill="#ed2127"/></g><g transform="translate(121.63 271.63)"><path d="m0 0c11.947 0 21.632-9.685 21.632-21.632 0-11.948-9.685-21.632-21.632-21.632s-21.632 9.684-21.632 21.632c0 11.947 9.685 21.632 21.632 21.632" fill="#ed2127"/></g><g transform="translate(218.47 262.98)"><path d="m0 0-16.264 16.264-78.929-78.929c-8.332-8.331-8.332-21.839 0-30.17 8.331-8.331 21.838-8.331 30.169 0l65.024 65.023c7.68 7.68 7.68 20.132 0 27.812" fill="#f15c28"/></g><g transform="translate(262.98 218.47)"><path d="m0 0 16.264-16.264-78.93-78.929c-8.331-8.331-21.838-8.331-30.169 0s-8.331 21.839 0 30.17l65.023 65.023c7.681 7.68 20.132 7.68 27.812 0" fill="#cbdc3d"/></g><g transform="translate(271.63 121.63)"><path d="m0 0c0 11.947-9.685 21.633-21.632 21.633-11.948 0-21.633-9.686-21.633-21.633s9.685-21.632 21.633-21.632c11.947 0 21.632 9.685 21.632 21.632" fill="#97ca3c"/></g><g transform="translate(284.84 196.6)"><path d="m0 0-30.17-30.17 45.014-45.014c8.331-8.331 21.838-8.331 30.169 0s8.331 21.839 0 30.17z" fill="#97ca3c"/></g><g transform="translate(303.4 215.16)"><path d="m0 0 30.169 30.169 45.014-45.013c8.331-8.331 8.331-21.839 0-30.17s-21.839-8.331-30.17 0z" fill="#f68c2b"/></g><g transform="translate(378.37 228.37)"><path d="m0 0c-11.947 0-21.632 9.685-21.632 21.632s9.685 21.632 21.632 21.632 21.632-9.685 21.632-21.632-9.685-21.632-21.632-21.632" fill="#f68c2b"/></g><g transform="translate(281.53 237.02)"><path d="m0 0 16.264-16.264 78.929 78.93c8.332 8.331 8.332 21.838 0 30.169-8.331 8.331-21.838 8.331-30.169 0l-65.024-65.023c-7.68-7.681-7.68-20.132 0-27.812" fill="#fdb82b"/></g><g transform="translate(284.84 303.4)"><path d="m0 0-30.17 30.169 45.014 45.014c8.331 8.331 21.838 8.331 30.169 0s8.331-21.839 0-30.17z" fill="#46bbeb"/></g><g transform="translate(271.63 378.37)"><path d="m0 0c0-11.947-9.685-21.632-21.632-21.632-11.948 0-21.633 9.685-21.633 21.632s9.685 21.632 21.633 21.632c11.947 0 21.632-9.685 21.632-21.632" fill="#46bbeb"/></g><g transform="translate(262.98 281.53)"><path d="m0 0 16.264 16.264-78.93 78.929c-8.331 8.332-21.838 8.332-30.169 0-8.331-8.331-8.331-21.838 0-30.169l65.023-65.024c7.681-7.68 20.132-7.68 27.812 0" fill="#59caec"/></g></g></g></g></g></g></svg>
