<?xml version="1.0" encoding="UTF-8" standalone="no"?>
<!-- Created with Inkscape (http://www.inkscape.org/) -->

<svg
   xmlns:dc="http://purl.org/dc/elements/1.1/"
   xmlns:cc="http://creativecommons.org/ns#"
   xmlns:rdf="http://www.w3.org/1999/02/22-rdf-syntax-ns#"
   xmlns:svg="http://www.w3.org/2000/svg"
   xmlns="http://www.w3.org/2000/svg"
   xmlns:sodipodi="http://sodipodi.sourceforge.net/DTD/sodipodi-0.dtd"
   xmlns:inkscape="http://www.inkscape.org/namespaces/inkscape"
   width="171.69746mm"
   height="23.054171mm"
   viewBox="0 0 171.69746 23.054171"
   version="1.1"
   id="svg8"
   inkscape:version="0.92.4 (5da689c313, 2019-01-14)"
   sodipodi:docname="team-feedback-logo.svg">
  <defs
     id="defs2">
    <clipPath
       id="clipPath847">
      <path
         id="path947"
         d="M 0,500 H 500 V 0 H 0 Z"
         inkscape:connector-curvature="0" />
    </clipPath>
  </defs>
  <sodipodi:namedview
     id="base"
     pagecolor="#ffffff"
     bordercolor="#666666"
     borderopacity="1.0"
     inkscape:pageopacity="0.0"
     inkscape:pageshadow="2"
     inkscape:zoom="1.4"
     inkscape:cx="325.8759"
     inkscape:cy="42.317203"
     inkscape:document-units="mm"
     inkscape:current-layer="g1149"
     showgrid="false"
     fit-margin-top="0"
     fit-margin-left="0"
     fit-margin-right="0"
     fit-margin-bottom="0"
     inkscape:window-width="1920"
     inkscape:window-height="1017"
     inkscape:window-x="-8"
     inkscape:window-y="-8"
     inkscape:window-maximized="1" />
  <metadata
     id="metadata5">
    <rdf:RDF>
      <cc:Work
         rdf:about="">
        <dc:format>image/svg+xml</dc:format>
        <dc:type
           rdf:resource="http://purl.org/dc/dcmitype/StillImage" />
        <dc:title />
      </cc:Work>
    </rdf:RDF>
  </metadata>
  <g
     inkscape:label="Layer 1"
     inkscape:groupmode="layer"
     id="layer1"
     transform="translate(84.854472,-171.32411)">
    <flowRoot
       xml:space="preserve"
       id="flowRoot1057"
       style="font-style:normal;font-weight:normal;font-size:74.66666412px;line-height:1.25;font-family:sans-serif;letter-spacing:0px;word-spacing:0px;fill:#000000;fill-opacity:1;stroke:none"
       transform="scale(0.26458333)"><flowRegion
         id="flowRegion1059"
         style="font-size:74.66666412px"><rect
           id="rect1061"
           width="537.14288"
           height="77.85714"
           x="-215"
           y="468.94824"
           style="font-size:74.66666412px" /></flowRegion><flowPara
         id="flowPara1063" /></flowRoot>    <g
       id="g1104"
       transform="translate(4.7247024,7.5595238)">
      <g
         id="g1149">
        <g
           id="g1016"
           transform="matrix(0.07684704,0,0,-0.07684704,-93.356339,194.34064)">
          <g
             id="flowRoot958"
             style="font-size:40px;line-height:1.25;font-family:sans-serif;letter-spacing:0px;word-spacing:0px;fill:#000000" />
          <g
             id="g1014"
             aria-label="Team feedback"
             transform="matrix(1.0501,0,0,-1.0501,-149.68,567.75)">
            <g
               id="g1012"
               transform="matrix(0.95228,0,0,-0.95228,142.54,540.66)">
              <g
                 id="g1010"
                 clip-path="url(#clipPath847)">
                <g
                   id="g1008"
                   transform="translate(-50.847,-2.1186)">
                  <g
                     id="g962"
                     transform="translate(196.6,284.84)">
                    <path
                       id="path960"
                       d="m 0,0 -30.169,-30.17 -45.014,45.014 c -8.331,8.331 -8.331,21.838 0,30.169 8.331,8.331 21.839,8.331 30.17,0 z"
                       inkscape:connector-curvature="0"
                       style="fill:#ed2127" />
                  </g>
                  <g
                     id="g966"
                     transform="translate(121.63,271.63)">
                    <path
                       id="path964"
                       d="m 0,0 c 11.947,0 21.632,-9.685 21.632,-21.632 0,-11.948 -9.685,-21.632 -21.632,-21.632 -11.947,0 -21.632,9.684 -21.632,21.632 C -21.632,-9.685 -11.947,0 0,0"
                       inkscape:connector-curvature="0"
                       style="fill:#ed2127" />
                  </g>
                  <g
                     id="g970"
                     transform="translate(218.47,262.98)">
                    <path
                       id="path968"
                       d="m 0,0 -16.264,16.264 -78.929,-78.929 c -8.332,-8.331 -8.332,-21.839 0,-30.17 8.331,-8.331 21.838,-8.331 30.169,0 L 0,-27.812 C 7.68,-20.132 7.68,-7.68 0,0"
                       inkscape:connector-curvature="0"
                       style="fill:#f15c28" />
                  </g>
                  <g
                     id="g974"
                     transform="translate(262.98,218.47)">
                    <path
                       id="path972"
                       d="m 0,0 16.264,-16.264 -78.93,-78.929 c -8.331,-8.331 -21.838,-8.331 -30.169,0 -8.331,8.331 -8.331,21.839 0,30.17 L -27.812,0 C -20.131,7.68 -7.68,7.68 0,0"
                       inkscape:connector-curvature="0"
                       style="fill:#cbdc3d" />
                  </g>
                  <g
                     id="g978"
                     transform="translate(271.63,121.63)">
                    <path
                       id="path976"
                       d="m 0,0 c 0,11.947 -9.685,21.633 -21.632,21.633 -11.948,0 -21.633,-9.686 -21.633,-21.633 0,-11.947 9.685,-21.632 21.633,-21.632 C -9.685,-21.632 0,-11.947 0,0"
                       inkscape:connector-curvature="0"
                       style="fill:#97ca3c" />
                  </g>
                  <g
                     id="g982"
                     transform="translate(284.84,196.6)">
                    <path
                       id="path980"
                       d="m 0,0 -30.17,-30.17 45.014,-45.014 c 8.331,-8.331 21.838,-8.331 30.169,0 8.331,8.331 8.331,21.839 0,30.17 z"
                       inkscape:connector-curvature="0"
                       style="fill:#97ca3c" />
                  </g>
                  <g
                     id="g986"
                     transform="translate(303.4,215.16)">
                    <path
                       id="path984"
                       d="m 0,0 30.169,30.169 45.014,-45.013 c 8.331,-8.331 8.331,-21.839 0,-30.17 -8.331,-8.331 -21.839,-8.331 -30.17,0 z"
                       inkscape:connector-curvature="0"
                       style="fill:#f68c2b" />
                  </g>
                  <g
                     id="g990"
                     transform="translate(378.37,228.37)">
                    <path
                       id="path988"
                       d="m 0,0 c -11.947,0 -21.632,9.685 -21.632,21.632 0,11.947 9.685,21.632 21.632,21.632 11.947,0 21.632,-9.685 21.632,-21.632 C 21.632,9.685 11.947,0 0,0"
                       inkscape:connector-curvature="0"
                       style="fill:#f68c2b" />
                  </g>
                  <g
                     id="g994"
                     transform="translate(281.53,237.02)">
                    <path
                       id="path992"
                       d="m 0,0 16.264,-16.264 78.929,78.93 c 8.332,8.331 8.332,21.838 0,30.169 -8.331,8.331 -21.838,8.331 -30.169,0 L 0,27.812 C -7.68,20.131 -7.68,7.68 0,0"
                       inkscape:connector-curvature="0"
                       style="fill:#fdb82b" />
                  </g>
                  <g
                     id="g998"
                     transform="translate(284.84,303.4)">
                    <path
                       id="path996"
                       d="m 0,0 -30.17,30.169 45.014,45.014 c 8.331,8.331 21.838,8.331 30.169,0 8.331,-8.331 8.331,-21.839 0,-30.17 z"
                       inkscape:connector-curvature="0"
                       style="fill:#46bbeb" />
                  </g>
                  <g
                     id="g1002"
                     transform="translate(271.63,378.37)">
                    <path
                       id="path1000"
                       d="m 0,0 c 0,-11.947 -9.685,-21.632 -21.632,-21.632 -11.948,0 -21.633,9.685 -21.633,21.632 0,11.947 9.685,21.632 21.633,21.632 C -9.685,21.632 0,11.947 0,0"
                       inkscape:connector-curvature="0"
                       style="fill:#46bbeb" />
                  </g>
                  <g
                     id="g1006"
                     transform="translate(262.98,281.53)">
                    <path
                       id="path1004"
                       d="m 0,0 16.264,16.264 -78.93,78.929 c -8.331,8.332 -21.838,8.332 -30.169,0 -8.331,-8.331 -8.331,-21.838 0,-30.169 L -27.812,0 C -20.131,-7.68 -7.68,-7.68 0,0"
                       inkscape:connector-curvature="0"
                       style="fill:#59caec" />
                  </g>
                </g>
              </g>
            </g>
          </g>
        </g>
        <g
           id="text1067"
           style="font-style:normal;font-weight:normal;font-size:10.58333302px;line-height:1.25;font-family:sans-serif;letter-spacing:0px;word-spacing:0px;fill:#000000;fill-opacity:1;stroke:none;stroke-width:0.26458332"
           aria-label="Team Feedback"
           transform="translate(0,0.9494365)">
          <path
             id="path1080"
             style="font-style:normal;font-variant:normal;font-weight:bold;font-stretch:normal;font-size:19.40277863px;font-family:Heebo;-inkscape-font-specification:'Heebo Bold';stroke-width:0.26458332"
             d="m -45.572458,170.14051 h -4.206461 v 11.38776 h -2.965366 v -11.38776 h -4.140144 v -2.4064 h 7.10551 4.206461 z"
             inkscape:connector-curvature="0" />
          <path
             id="path1082"
             style="font-style:normal;font-variant:normal;font-weight:bold;font-stretch:normal;font-size:19.40277863px;font-family:Heebo;-inkscape-font-specification:'Heebo Bold';stroke-width:0.26458332"
             d="m -35.132095,177.33129 h -6.480225 q 0.161058,0.95687 0.795817,1.52531 0.634759,0.55897 1.62953,0.55897 0.738973,0 1.364258,-0.27475 0.634759,-0.28422 1.080037,-0.84318 l 1.373732,1.58216 q -0.540018,0.77687 -1.58216,1.30741 -1.032667,0.53054 -2.425347,0.53054 -1.572686,0 -2.73799,-0.66318 -1.155829,-0.66318 -1.781114,-1.80006 -0.615811,-1.13688 -0.615811,-2.51061 v -0.36001 q 0,-1.53479 0.577915,-2.73799 0.577914,-1.2032 1.667426,-1.87586 1.089511,-0.68213 2.576931,-0.68213 1.449524,0 2.472718,0.61581 1.023193,0.61581 1.553738,1.7527 0.530545,1.1274 0.530545,2.66219 z m -2.804308,-2.14113 q -0.01895,-0.83371 -0.464227,-1.31689 -0.435804,-0.48317 -1.307414,-0.48317 -0.814765,0 -1.278991,0.54002 -0.454753,0.54001 -0.596863,1.48742 h 3.647495 z"
             inkscape:connector-curvature="0" />
          <path
             id="path1084"
             style="font-style:normal;font-variant:normal;font-weight:bold;font-stretch:normal;font-size:19.40277863px;font-family:Heebo;-inkscape-font-specification:'Heebo Bold';stroke-width:0.26458332"
             d="m -25.269647,178.99871 q 0,0.87161 0.104214,1.41163 0.104214,0.54002 0.312642,0.95688 v 0.16105 h -2.870626 q -0.18948,-0.36948 -0.274746,-0.91897 -0.975823,1.10845 -2.567458,1.10845 -0.966349,0 -1.762166,-0.3979 -0.795817,-0.39791 -1.260044,-1.09899 -0.454752,-0.70108 -0.454752,-1.58216 0,-1.62006 1.203199,-2.49166 1.2032,-0.88109 3.543281,-0.88109 h 1.165304 v -0.57791 q 0,-0.71055 -0.360013,-1.09899 -0.360012,-0.39791 -1.080037,-0.39791 -0.653707,0 -1.023194,0.31265 -0.360012,0.30316 -0.360012,0.8716 h -2.861152 q 0,-0.91897 0.540019,-1.66742 0.549492,-0.74845 1.544264,-1.18425 1.004245,-0.43581 2.311659,-0.43581 1.212674,0 2.150601,0.40738 0.937927,0.40739 1.468472,1.22215 0.530545,0.81477 0.530545,1.98955 z m -4.651741,0.5495 q 0.625285,0 1.098986,-0.26528 0.4737,-0.27474 0.691603,-0.66318 v -1.71479 h -1.089512 q -0.994771,0 -1.48742,0.4358 -0.483175,0.42633 -0.483175,1.11793 0,0.48318 0.341065,0.78635 0.350538,0.30317 0.928453,0.30317 z"
             inkscape:connector-curvature="0" />
          <path
             id="path1086"
             style="font-style:normal;font-variant:normal;font-weight:bold;font-stretch:normal;font-size:19.40277863px;font-family:Heebo;-inkscape-font-specification:'Heebo Bold';stroke-width:0.26458332"
             d="m -11.769179,171.08791 q 1.563212,0 2.4158734,0.92846 0.8526612,0.92845 0.8526612,3.01273 v 6.49917 h -2.8611516 v -6.50864 q 0,-0.64424 -0.170533,-0.99477 -0.170532,-0.36002 -0.492648,-0.49265 -0.312643,-0.13264 -0.795817,-0.13264 -0.577915,0 -0.985298,0.28422 -0.407382,0.27475 -0.644233,0.78634 0.0095,0.0663 0.0095,0.21791 v 6.84023 h -2.861151 v -6.48022 q 0,-0.64423 -0.170533,-1.00425 -0.170532,-0.36001 -0.492648,-0.50212 -0.312643,-0.14211 -0.805292,-0.14211 -0.549492,0 -0.956875,0.24633 -0.397908,0.23685 -0.644233,0.68212 v 7.20025 h -2.861152 v -10.25088 h 2.681146 l 0.09474,1.14636 q 0.511597,-0.64423 1.25057,-0.9853 0.748447,-0.35054 1.686374,-0.35054 0.947402,0 1.62953,0.38844 0.691603,0.37896 1.06109,1.1653 0.511597,-0.74845 1.278992,-1.14636 0.776869,-0.40738 1.781114,-0.40738 z"
             inkscape:connector-curvature="0" />
          <path
             id="path1088"
             style="font-style:normal;font-variant:normal;font-weight:bold;font-stretch:normal;font-size:19.40277863px;font-family:Heebo;-inkscape-font-specification:'Heebo Bold';stroke-width:0.26458332"
             d="m 1.5418088,170.14051 v 3.41065 h 5.4286095 v 2.38745 H 1.5418088 v 5.58966 h -2.97484 v -13.79416 h 2.97484 6.0823164 v 2.4064 z"
             inkscape:connector-curvature="0" />
          <path
             id="path1090"
             style="font-style:normal;font-variant:normal;font-weight:bold;font-stretch:normal;font-size:19.40277863px;font-family:Heebo;-inkscape-font-specification:'Heebo Bold';stroke-width:0.26458332"
             d="m 18.073963,177.33129 h -6.480225 q 0.161059,0.95687 0.795817,1.52531 0.634759,0.55897 1.629531,0.55897 0.738973,0 1.364257,-0.27475 0.634759,-0.28422 1.080038,-0.84318 l 1.373732,1.58216 q -0.540019,0.77687 -1.58216,1.30741 -1.032668,0.53054 -2.425348,0.53054 -1.572686,0 -2.737989,-0.66318 -1.15583,-0.66318 -1.7811148,-1.80006 -0.6158109,-1.13688 -0.6158109,-2.51061 v -0.36001 q 0,-1.53479 0.5779148,-2.73799 0.5779148,-1.2032 1.6674259,-1.87586 1.089512,-0.68213 2.576932,-0.68213 1.449524,0 2.472717,0.61581 1.023194,0.61581 1.553738,1.7527 0.530545,1.1274 0.530545,2.66219 z m -2.804308,-2.14113 q -0.01895,-0.83371 -0.464226,-1.31689 -0.435805,-0.48317 -1.307414,-0.48317 -0.814765,0 -1.278992,0.54002 -0.454752,0.54001 -0.596863,1.48742 h 3.647495 z"
             inkscape:connector-curvature="0" />
          <path
             id="path1092"
             style="font-style:normal;font-variant:normal;font-weight:bold;font-stretch:normal;font-size:19.40277863px;font-family:Heebo;-inkscape-font-specification:'Heebo Bold';stroke-width:0.26458332"
             d="m 28.609066,177.33129 h -6.480225 q 0.161058,0.95687 0.795817,1.52531 0.634759,0.55897 1.62953,0.55897 0.738973,0 1.364258,-0.27475 0.634759,-0.28422 1.080038,-0.84318 l 1.373732,1.58216 q -0.540019,0.77687 -1.58216,1.30741 -1.032668,0.53054 -2.425348,0.53054 -1.572686,0 -2.73799,-0.66318 -1.155829,-0.66318 -1.781114,-1.80006 -0.615811,-1.13688 -0.615811,-2.51061 v -0.36001 q 0,-1.53479 0.577915,-2.73799 0.577915,-1.2032 1.667426,-1.87586 1.089512,-0.68213 2.576932,-0.68213 1.449524,0 2.472717,0.61581 1.023194,0.61581 1.553738,1.7527 0.530545,1.1274 0.530545,2.66219 z m -2.804308,-2.14113 q -0.01895,-0.83371 -0.464226,-1.31689 -0.435805,-0.48317 -1.307414,-0.48317 -0.814765,0 -1.278992,0.54002 -0.454753,0.54001 -0.596863,1.48742 h 3.647495 z"
             inkscape:connector-curvature="0" />
          <path
             id="path1094"
             style="font-style:normal;font-variant:normal;font-weight:bold;font-stretch:normal;font-size:19.40277863px;font-family:Heebo;-inkscape-font-specification:'Heebo Bold';stroke-width:0.26458332"
             d="m 39.002059,166.97619 v 14.55208 h -2.576932 l -0.14211,-1.09898 q -1.004245,1.28846 -2.59588,1.28846 -1.241095,0 -2.150601,-0.66318 -0.900031,-0.67265 -1.373731,-1.84743 -0.464227,-1.17478 -0.464227,-2.68114 v -0.19896 q 0,-1.56321 0.464227,-2.74746 0.4737,-1.18425 1.373731,-1.83796 0.909506,-0.65371 2.169549,-0.65371 1.458998,0 2.434822,1.10846 v -5.22018 z m -4.585423,12.42991 q 1.2032,0 1.724271,-1.0232 v -3.96014 q -0.492649,-1.02319 -1.705323,-1.02319 -0.975823,0 -1.430576,0.79582 -0.445278,0.79582 -0.445278,2.13165 v 0.19896 q 0,1.31688 0.435804,2.10323 0.445279,0.77687 1.421102,0.77687 z"
             inkscape:connector-curvature="0" />
          <path
             id="path1096"
             style="font-style:normal;font-variant:normal;font-weight:bold;font-stretch:normal;font-size:19.40277863px;font-family:Heebo;-inkscape-font-specification:'Heebo Bold';stroke-width:0.26458332"
             d="m 46.372839,171.08791 q 1.316888,0 2.21692,0.66318 0.900031,0.65371 1.345309,1.82849 0.445279,1.1653 0.445279,2.70957 v 0.19895 q 0,1.56321 -0.445279,2.74746 -0.445278,1.17478 -1.335835,1.82849 -0.890558,0.6537 -2.207446,0.6537 -1.639004,0 -2.614827,-1.27899 l -0.132636,1.08951 h -2.567458 v -14.55208 h 2.861152 v 5.19176 q 0.928453,-1.08004 2.434821,-1.08004 z m 1.146356,5.20124 q 0,-1.33584 -0.416857,-2.11271 -0.407382,-0.77687 -1.449524,-0.77687 -1.250569,0 -1.714796,1.00425 v 3.99803 q 0.454753,1.00425 1.733744,1.00425 1.051616,0 1.449524,-0.74845 0.397909,-0.74845 0.397909,-2.16955 z"
             inkscape:connector-curvature="0" />
          <path
             id="path1098"
             style="font-style:normal;font-variant:normal;font-weight:bold;font-stretch:normal;font-size:19.40277863px;font-family:Heebo;-inkscape-font-specification:'Heebo Bold';stroke-width:0.26458332"
             d="m 60.337534,178.99871 q 0,0.87161 0.104214,1.41163 0.104214,0.54002 0.312643,0.95688 v 0.16105 h -2.870626 q -0.18948,-0.36948 -0.274747,-0.91897 -0.975823,1.10845 -2.567457,1.10845 -0.966349,0 -1.762167,-0.3979 -0.795817,-0.39791 -1.260043,-1.09899 -0.454753,-0.70108 -0.454753,-1.58216 0,-1.62006 1.2032,-2.49166 1.203199,-0.88109 3.543281,-0.88109 h 1.165303 v -0.57791 q 0,-0.71055 -0.360012,-1.09899 -0.360013,-0.39791 -1.080038,-0.39791 -0.653707,0 -1.023193,0.31265 -0.360013,0.30316 -0.360013,0.8716 h -2.861152 q 0,-0.91897 0.540019,-1.66742 0.549493,-0.74845 1.544264,-1.18425 1.004246,-0.43581 2.311659,-0.43581 1.212674,0 2.150601,0.40738 0.937928,0.40739 1.468472,1.22215 0.530545,0.81477 0.530545,1.98955 z m -4.65174,0.5495 q 0.625285,0 1.098985,-0.26528 0.473701,-0.27474 0.691603,-0.66318 v -1.71479 h -1.089511 q -0.994772,0 -1.48742,0.4358 -0.483175,0.42633 -0.483175,1.11793 0,0.48318 0.341064,0.78635 0.350539,0.30317 0.928454,0.30317 z"
             inkscape:connector-curvature="0" />
          <path
             id="path1100"
             style="font-style:normal;font-variant:normal;font-weight:bold;font-stretch:normal;font-size:19.40277863px;font-family:Heebo;-inkscape-font-specification:'Heebo Bold';stroke-width:0.26458332"
             d="m 70.967373,177.93762 q 0,1.08952 -0.568441,1.95165 -0.568441,0.86214 -1.544264,1.34531 -0.966349,0.48317 -2.150601,0.48317 -1.544264,0 -2.614828,-0.67265 -1.070563,-0.67266 -1.610582,-1.84743 -0.530544,-1.17478 -0.530544,-2.67167 v -0.24633 q 0,-1.49689 0.530544,-2.67167 0.540019,-1.17478 1.601108,-1.84743 1.070564,-0.67266 2.605354,-0.67266 1.260044,0 2.226393,0.49265 0.975823,0.48318 1.515842,1.40215 0.540019,0.90951 0.540019,2.15061 h -2.681146 q -0.0095,-0.75793 -0.445278,-1.25057 -0.435805,-0.49265 -1.212674,-0.49265 -1.042141,0 -1.430576,0.78634 -0.388435,0.77687 -0.388435,2.10323 v 0.24633 q 0,1.35478 0.378961,2.12217 0.388434,0.7674 1.458998,0.7674 0.738973,0 1.184252,-0.39791 0.445278,-0.39791 0.454752,-1.08004 z"
             inkscape:connector-curvature="0" />
          <path
             id="path1102"
             style="font-style:normal;font-variant:normal;font-weight:bold;font-stretch:normal;font-size:19.40277863px;font-family:Heebo;-inkscape-font-specification:'Heebo Bold';stroke-width:0.26458332"
             d="m 76.310726,177.49234 -0.956875,0.95688 v 3.07905 h -2.861152 v -14.56155 h 2.861152 v 7.96764 l 0.4737,-0.61581 2.567458,-3.04116 h 3.429593 l -3.675918,4.25383 3.969612,5.99705 h -3.278009 z"
             inkscape:connector-curvature="0" />
        </g>
      </g>
    </g>
  </g>
</svg>
